<?xml version="1.0" encoding="UTF-8"?>
<svg width="250px" height="250px" enable-background="new 0 0 250 250" version="1.1" viewBox="0 0 250 250" xml:space="preserve" xmlns="http://www.w3.org/2000/svg">
<g id="sheet" fill="#9AA7B0" fill-opacity="0.8" transform="translate(-12.7,-14.2)">
 <polygon points="12.7 18.2 16.7 18.2 16.7 14.2"/>
 <polygon points="22.7 28.2 22.7 14.2 17.7 14.2 17.7 19.2 12.7 19.2 12.7 28.2"/>
</g>

<g fill="#231F20" fill-opacity="0.7">
 <path id="letterA" d="m3.2 18-0.7-1.6-0.6 1.6zm-1.1-3h0.8l2.1 5h-1.1l-0.5-1h-1.8l-0.5 1h-1.1z"/>
 <path id="letterC" d="m10 17.501c0-1.501 0.931-2.501 2.256-2.501 0.94639 0 1.294 0.311 1.713 0.753l-0.5423 0.6741c-0.35-0.359-0.6767-0.4271-1.1767-0.4271-0.832 0-1.25 0.7379-1.25 1.487s0.412 1.513 1.25 1.513c0.537 0 0.8017-0.1066 1.1767-0.4936l0.5733 0.6376c-0.456 0.525-0.80267 0.856-1.775 0.856-1.276 0-2.225-0.998-2.225-2.499z"/>
 <path id="letterD" d="m16 16v3h0.6c0.9 0 1.4-0.5 1.4-1.5s-0.4-1.5-1.4-1.5zm-1-1h1.6c1.4 0 2.4 1.1 2.4 2.5s-1 2.5-2.4 2.5h-1.6z"/>
 <path id="letterE" d="m23.4 19.2v0.8h-3.4v-5h3.4v0.8h-2.5v0.9h2.1v0.8h-2.1v1.7z"/>
 <path id="letterF" d="m28 16v-1h-3v5h1v-2h1.8v-1h-1.8v-1z"/>
 <path id="letterG" d="m32.507 20c-1.5124 0-2.5069-1.0773-2.5069-2.4862v-0.01381c0-1.3536 1.0359-2.5 2.4931-2.5 0.84254 0 1.3605 0.23481 1.8577 0.65608l-0.53867 0.64227c-0.37293-0.31077-0.73895-0.51105-1.3536-0.51105-0.89088 0-1.5677 0.77348-1.5677 1.6989v0.01381c0 0.99448 0.65608 1.7265 1.6436 1.7265 0.4558 0 0.87017-0.14503 1.1671-0.36602v-0.89779h-1.2362v-0.74586h2.058v2.0304c-0.47652 0.40746-1.1602 0.75276-2.0166 0.75276z"/>
 <path id="letterH" d="m35 15h1v2h2v-2h1v5h-1v-2h-2v2h-1z"/>
 <path id="letterI" d="m41 20v-5h-1v5z"/>
 <path id="letterJ" d="m45.409 18.6c0.2 0.3 0.4 0.4 0.9 0.4s0.7-0.4 0.7-0.7v-3.3h1v3.6c0 0.7-0.7 1.4-1.5 1.4s-1.3-0.2-1.7-0.7z"/>
 <path id="letterM" d="m64 15h1v5h-1v-3.3l-1.5 1.8-1.5-1.8v3.3h-1v-5h0.9l1.6 2z"/>
 <path id="letterO" d="m71.998 16c-0.7 0-1 0.5-1 1.5s0.3 1.5 1 1.5 1-0.6 1-1.5-0.3-1.5-1-1.5zm0-1c1.2 0 2 1.1 2 2.5s-0.8 2.5-2 2.5-2-1.1-2-2.5c0-1.5 0.8-2.5 2-2.5z"/>
 <path id="letterP" d="m81.9 17.5c0.664 0 1.1-0.1156 1.1-0.75s-0.443-0.75-1.1-0.75h-0.9v1.5zm-1.9-2.5h1.971c1.171 0 2.029 0.642 2.029 1.65 0 1.6358-1.029 1.85-2.128 1.85h-0.872v1.5h-1z"/>
 <path id="letterQ" d="m90.108 19.4-0.5 0.6-0.6-0.5c-0.4 0.3-0.9 0.5-1.5 0.5-1.5 0-2.5-1.1-2.5-2.5s1-2.5 2.5-2.5 2.5 1.1 2.5 2.5c0 0.6-0.2 1.1-0.5 1.5zm-2.5-0.3c0.3 0 0.6-0.1 0.8-0.2l-0.8-0.7 0.6-0.6 0.8 0.7c0.1-0.2 0.2-0.5 0.2-0.8 0-0.9-0.6-1.6-1.5-1.6s-1.5 0.7-1.5 1.6c-0.2 0.9 0.5 1.6 1.4 1.6z"/>
 <path id="letterR" d="m90 20v-5h2.1c0.6 0 1 0.2 1.3 0.5s0.4 0.7 0.4 1.1c0 0.8-0.4 1.3-1 1.6l1.1 1.8h-1.2l-1-1.6h-0.8v1.6zm1.1-2.5h1c0.5 0 0.8-0.3 0.8-0.7 0-0.5-0.3-0.7-0.8-0.7h-1z"/>
 <path id="letterS" d="m95.9 16.5c0-0.4 0.3-0.5 0.9-0.5h1.2v-1h-1.1c-1.1 0-1.9 0.5-1.9 1.4s0.4 1.2 1.5 1.5c0.8 0.2 1 0.3 1 0.6s-0.4 0.5-1 0.5h-1.2v1h1.2c2 0 2-1 2-1.5 0-0.6-0.5-1.1-1.3-1.4-1-0.3-1.3-0.3-1.3-0.6z"/>
 <path id="letterT" d="m102.5 16h1.5v-1h-4v1h1.5v4h1z"/>
 <path id="letterV" d="m111.91 20-1.9054-5h0.99678c0.98723 2.6161 1.4855 3.9494 1.495 4l1.4951-4h0.99661l-1.9054 5z"/>
 <path id="letterX" d="m124.5 20h-1.2l-1-1.9-1.1 1.9h-1.2l1.6-2.6-1.6-2.4h1.2l1.1 1.8 1-1.8h1.2l-1.6 2.4z"/>
 <path id="letterY" d="m127.5 17.2 1.4-2.2h1.1l-2 3v2h-1v-1.9l-2-3.1h1z"/>
 <path id="letterBigG" d="m33.008 31c-1.8149 0-3.0083-1.2928-3.0083-2.9834v-0.01657c0-1.6243 1.2431-3 2.9917-3 1.011 0 1.6326 0.28177 2.2293 0.78729l-0.64641 0.77072c-0.44751-0.37293-0.88674-0.61326-1.6243-0.61326-1.0691-5e-6 -1.8812 0.92817-1.8812 2.0387v0.01657c0 1.1934 0.78729 2.0718 1.9724 2.0718 0.54696 0 1.0442-0.17403 1.4006-0.43923v-1.0773h-1.4834v-0.89503h2.4696v2.4365c-0.57182 0.48895-1.3923 0.90332-2.4199 0.90332z"/>
 <path id="letterBigR" d="m91 28v-2h1.537c0.766 0 1.463 0.3126 1.463 0.9536s-0.715 1.0464-1.453 1.0464zm2.36 0.8276c0.815-0.238 1.64-0.71813 1.64-1.915 0-1.1969-1.0512-1.913-2.378-1.913h-2.622v6h1v-1.9996h1.328l1.445 1.9996h1.227z"/>
 <path id="digitOne" d="m0.2 26.3 0.8-0.3v4h1v-5h-0.9l-1.1 0.5z"/>
 <path id="angleBrackets" d="m0 38v-1l3-2v1l-2.2 1.5 2.2 1.5v1zm5 1 2.2-1.5-2.2-1.5v-1l3 2v1l-3 2z"/>
 <path id="curlyBraces" d="m11.4 42.1v-0.8c0-0.8-0.3-1.2-1.2-1.2h-0.3v-1h0.3c0.9 0 1.2-0.3 1.2-1.2v-0.8c0-1.1 0.5-1.7 2.3-2.1l0.2 0.8c-1.2 0.3-1.4 0.7-1.4 1.4v0.8c0 0.8-0.4 1.2-1.1 1.4 0.7 0.2 1.1 0.6 1.1 1.4v0.8c0 0.8 0.2 1.1 1.4 1.4l-0.2 0.8c-1.9 0.1-2.3-0.6-2.3-1.7m3.6 1.3c1.2-0.3 1.4-0.7 1.4-1.4v-0.8c0-0.8 0.4-1.2 1.1-1.4-0.7-0.2-1.1-0.6-1.1-1.4v-0.8c0-0.8-0.2-1.1-1.4-1.4l0.2-0.8c1.9 0.3 2.3 1 2.3 2.1v0.8c0 0.8 0.3 1.2 1.2 1.2h0.3v1h-0.3c-0.9 0-1.2 0.3-1.2 1.2v0.8c0 1.1-0.5 1.8-2.3 2.1z"/>
 <path id="questionMark" d="m26.533 41h1v-1h-1zm0.46667-6c-1.1333 0-2 0.86667-2 2h1c0-0.53333 0.46667-1 1-1s1 0.46667 1 1c0 1-1.4667 0.86667-1.4667 2.5333h1c0-1.1333 1.4667-1.2667 1.4667-2.5333 0-1.1333-0.86667-2-2-2z"/>
 <path id="apply" d="m37.417 38.083-1.5833-2.0833-0.83333 0.83333 2.5 3.1667 2.5-4.1666-0.83333-0.83333z"/>
 <path id="at" d="m49.532 38.451c-0.19375 0.1125-0.35375 0.26625-0.4775 0.45375-0.11875 0.185-0.20625 0.39625-0.25875 0.6275-0.0525 0.22875-0.07875 0.4625-0.07875 0.6975 0 0.5025 0.09125 0.86 0.27625 1.0925 0.19 0.2375 0.44625 0.35875 0.76 0.35875 0.20625 0 0.3875-0.0475 0.54-0.1425 0.15-0.09125 0.275-0.2225 0.37-0.38875 0.09125-0.15875 0.1625-0.35 0.21-0.57 0.0475-0.2125 0.07875-0.45375 0.09-0.71375l0.08625-1.4925-0.0525-0.0125c-0.14375-0.03375-0.2525-0.05125-0.375-0.065-0.1225-0.0125-0.245-0.01875-0.3725-0.01875-0.28 0-0.52 0.0575-0.7175 0.17375zm-4.5325 1.5494c0-4.9994 4.5816-4.9994 5.3925-4.9994 0.4187 0 4.605 0.10666 4.605 4.445 0 3.065-1.9062 3.0536-2.2875 3.0536-0.62098-0.0375-1.0697-0.28288-1.3462-0.73612-0.51312 0.49075-1.0148 0.73612-1.505 0.73612-1.0118 0-2.3612-0.09863-2.3612-2.4999 0-2.0996 1.8198-2.5 2.5-2.5 0.19125 0 2.1812 0.06875 2.28 0.09875l-0.1 2.6362c-0.06049 0.83794 0.14326 1.2784 0.61125 1.3212 0.90369 0 1.0338-1.8275 1.0338-2.1225 0-3.2996-2.94-3.5025-3.43-3.5025-0.68125 0-4.2157 0.13224-4.2157 4.0694 0 0.72928 0 4.0569 3.6819 4.0569 0.25125 0 2.3188-0.25384 2.8412-0.5225v0.9375c-0.38375 0.15625-1.3362 0.5275-2.83 0.5275-0.92792 0-4.87 0-4.87-4.9994z"/>
 <path id="wrench" d="m67.651 36.591-1.737 1.737-1.414-1.414 1.738-1.737c-0.283-0.11-0.588-0.177-0.91-0.177-1.381 0-2.5 1.119-2.5 2.5 0 0.322 0.066 0.627 0.177 0.91l-3.005 3.004 1.414 1.414 3.006-3.005c0.281 0.111 0.586 0.177 0.908 0.177 1.381 0 2.5-1.119 2.5-2.5 0-0.322-0.067-0.627-0.177-0.909"/>
 <path id="letterL" d="m56 15v4h2.5v1h-3.5v-5z"/>
</g>
</svg>